<svg version="1.2" xmlns="http://www.w3.org/2000/svg" viewBox="0 0 919 922" width="919" height="922"><style>.a{fill:#eaf2fd}</style><path class="a" d="m483.2 682.3v15.7h107.8v-150.1-65.6-106.7-1.2-68.1l27.7 34.7 26.9 33.4 42.2 52.7 42.2-52.7 26.8-33.4 22.9-28.6c9.1 19.7 16.4 40.5 21.9 62 2.5 9.8 4.5 19.9 6.1 30 3 18.5 4.5 37.3 4.5 56.6 0 7.1-0.2 14.2-0.6 21.3-1.6 28.1-6.6 55.2-14.4 81.2-31.1 103.1-107.6 186.4-206.2 226.7-33.7 13.7-69.9 22.4-107.8 25.1v106.3c37.3-2 73.4-8.6 107.8-19 125-37.9 227.5-127.3 282.7-243.5 18.5-38.8 31.6-80.5 38.7-124.2 2.8-17.2 4.6-34.8 5.4-52.6 0.4-7.1 0.5-14.2 0.5-21.3 0-29.5-2.9-58.5-8.2-86.6-10.4-54.7-30.3-105.9-58.2-152-19.3-31.8-42.2-60.9-68.3-87.1l-66.8 83.5-29 36-96.8-120.7-2.6-3.3-104.5-130.4c-0.3 0-0.4 0-0.5 0l-0.2 0.1v106.2 65.2 202.5 107.9 27.7z"/><path fill-rule="evenodd" class="a" d="m328 790.2c33.7 13.7 69.9 22.4 107.8 25.1v106.3c-37.3-2-73.3-8.6-107.8-19-182.9-55.5-317.8-221.6-326.8-420.3-0.2-7.1-0.5-14.2-0.5-21.3 0-29.5 2.9-58.5 8.2-86.6 32.1-169.2 156.7-305.8 319.1-355 34.5-10.4 70.5-16.9 107.8-19v697.6h-107.8v-215.7h-220.5c8.1 139.6 97 257.4 220.5 307.9zm0-658.4c-103.7 42.3-182.9 132.3-210.6 242.6h210.6z"/></svg>